<?xml version="1.0" standalone="no"?>
<!DOCTYPE svg PUBLIC "-//W3C//DTD SVG 20010904//EN"
 "http://www.w3.org/TR/2001/REC-SVG-20010904/DTD/svg10.dtd">
<svg version="1.0" xmlns="http://www.w3.org/2000/svg"
 width="2403.000000pt" height="1708.000000pt" viewBox="0 0 2403.000000 1708.000000"
 preserveAspectRatio="xMidYMid meet">
<metadata>
Created by potrace 1.16, written by Peter Selinger 2001-2019
</metadata>
<g transform="translate(0.000000,1708.000000) scale(0.100000,-0.100000)"
fill="#000000" stroke="none">
<path d="M3460 17069 c-86 -11 -188 -29 -225 -39 -112 -32 -361 -116 -363
-122 -2 -4 -11 -8 -20 -8 -19 0 -87 -23 -142 -47 -19 -8 -44 -19 -55 -23 -21
-8 -105 -47 -190 -86 -147 -69 -284 -161 -377 -256 -84 -85 -127 -162 -194
-342 -33 -88 -112 -225 -136 -235 -5 -1 -30 -21 -55 -43 -26 -22 -61 -47 -80
-56 -18 -9 -33 -19 -33 -24 0 -4 -4 -8 -9 -8 -5 0 -55 -22 -112 -49 -57 -26
-125 -54 -151 -62 -27 -7 -48 -17 -48 -21 0 -4 -7 -8 -16 -8 -19 0 -384 -126
-449 -155 -16 -7 -43 -17 -60 -21 -16 -4 -41 -12 -55 -19 -14 -7 -70 -30 -125
-50 -55 -21 -123 -49 -152 -62 -28 -13 -62 -28 -75 -33 -13 -5 -30 -14 -38
-18 -8 -5 -40 -21 -70 -35 -120 -59 -198 -139 -221 -228 -26 -98 39 -253 268
-639 41 -69 209 -245 258 -270 17 -8 32 -18 35 -21 3 -3 46 -25 95 -48 50 -24
98 -47 107 -52 10 -5 25 -9 33 -9 8 0 15 -4 15 -10 0 -5 7 -10 15 -10 8 0 30
-9 50 -20 20 -11 40 -20 45 -20 6 0 29 -9 53 -19 23 -10 51 -22 61 -25 18 -6
18 -8 -6 -20 -14 -8 -43 -19 -65 -26 -52 -16 -124 -51 -147 -72 -11 -10 -23
-18 -28 -18 -21 0 -156 -133 -168 -166 -21 -53 17 -71 111 -53 33 6 62 9 65 6
3 -3 -4 -15 -15 -26 -21 -21 -30 -96 -12 -103 5 -2 23 -32 41 -68 18 -36 36
-67 40 -70 4 -3 17 -25 30 -49 12 -24 26 -49 31 -55 48 -60 59 -75 59 -81 0
-12 34 -34 53 -35 9 0 25 -4 35 -9 29 -16 343 -31 622 -31 520 0 1021 -25
1146 -56 l62 -16 41 -89 c23 -50 60 -145 81 -212 21 -67 68 -215 105 -330 36
-114 63 -212 60 -217 -3 -6 -13 -10 -21 -10 -30 0 -94 -41 -99 -63 -16 -62
191 -445 301 -560 34 -35 40 -37 78 -32 l41 6 41 -63 c136 -207 182 -357 214
-698 31 -328 67 -638 89 -760 21 -119 57 -266 72 -292 5 -10 9 -27 9 -38 0
-12 8 -37 19 -58 10 -20 24 -58 32 -84 7 -27 17 -48 21 -48 4 0 8 -7 8 -15 0
-20 99 -219 111 -223 5 -2 9 -12 9 -23 0 -10 5 -19 10 -19 6 0 10 -9 10 -20 0
-11 4 -20 9 -20 5 0 14 -13 21 -30 7 -16 16 -30 21 -30 4 0 10 -8 14 -19 3
-10 13 -28 23 -39 9 -11 24 -30 32 -42 8 -12 23 -31 33 -42 9 -12 17 -25 17
-29 0 -4 10 -19 23 -31 13 -13 28 -31 33 -40 10 -18 57 -75 117 -141 20 -22
37 -44 37 -48 0 -4 18 -26 40 -49 22 -23 40 -46 40 -51 0 -5 7 -9 15 -9 8 0
15 -5 15 -11 0 -15 472 -485 570 -568 41 -35 102 -87 135 -116 33 -30 79 -68
102 -87 22 -18 68 -55 101 -83 l61 -49 7 -76 c9 -95 -2 -337 -20 -458 -28
-183 -104 -424 -189 -602 -24 -49 -78 -142 -88 -150 -4 -3 -16 -25 -29 -49
-12 -24 -32 -54 -43 -66 -12 -12 -29 -32 -37 -45 -8 -12 -30 -38 -47 -58 -18
-20 -33 -40 -33 -44 0 -7 -56 -68 -142 -156 -35 -35 -68 -62 -75 -62 -5 0 -14
-9 -21 -20 -7 -11 -19 -20 -26 -20 -8 0 -18 -9 -21 -20 -3 -11 -11 -20 -17
-20 -6 0 -18 -8 -27 -18 -9 -10 -32 -29 -51 -42 -49 -35 -70 -52 -93 -77 -11
-13 -26 -23 -32 -23 -6 0 -17 -9 -25 -20 -8 -11 -18 -20 -22 -20 -7 0 -36 -21
-63 -48 -8 -6 -17 -12 -22 -12 -5 0 -15 -9 -23 -20 -8 -11 -19 -20 -25 -20 -6
0 -16 -9 -23 -20 -7 -11 -18 -20 -25 -20 -7 0 -19 -9 -27 -20 -8 -11 -18 -20
-23 -20 -5 0 -26 -18 -47 -40 -21 -22 -41 -40 -45 -40 -3 0 -55 -51 -116 -113
-146 -149 -165 -170 -179 -197 -7 -13 -23 -34 -36 -47 -13 -13 -24 -28 -24
-32 0 -4 -9 -18 -20 -31 -11 -13 -23 -35 -27 -49 -3 -14 -9 -28 -13 -31 -23
-16 -90 -178 -90 -217 0 -13 -4 -23 -9 -23 -9 0 -15 -30 -32 -155 -24 -180
-37 -417 -79 -1415 -5 -124 -14 -304 -19 -400 -19 -315 -30 -604 -24 -646 3
-25 16 -53 34 -74 16 -18 29 -37 29 -41 0 -5 9 -9 20 -9 11 0 20 -4 20 -10 0
-5 11 -10 24 -10 14 0 27 -4 30 -9 12 -19 206 -40 206 -22 0 6 18 11 39 11 22
0 43 5 46 10 3 6 17 10 31 10 13 0 24 5 24 10 0 6 11 10 25 10 14 0 25 5 25
10 0 6 9 10 20 10 11 0 20 5 20 10 0 6 5 10 11 10 6 0 24 14 39 30 15 17 31
30 34 30 6 0 92 87 124 127 41 50 93 137 99 166 3 15 8 27 12 27 4 0 12 21 19
48 50 184 55 233 48 467 -6 202 -9 243 -37 475 -7 58 -13 209 -13 335 -1 242
7 311 56 460 25 76 79 195 89 195 4 0 10 9 14 19 7 24 158 181 174 181 6 0 11
5 11 10 0 6 5 10 10 10 6 0 21 9 33 20 12 11 38 26 59 32 21 6 38 15 38 20 0
4 9 8 20 8 11 0 20 5 20 10 0 6 11 10 25 10 14 0 25 5 25 10 0 6 11 10 25 10
14 0 25 5 25 10 0 6 14 10 30 10 17 0 30 5 30 10 0 6 14 10 30 10 17 0 30 5
30 10 0 6 14 10 30 10 17 0 30 4 30 9 0 9 31 17 103 28 20 3 37 9 37 14 0 5
11 9 24 9 14 0 28 5 31 10 3 6 17 10 30 10 13 0 27 5 30 10 3 6 15 10 26 10
10 0 19 5 19 10 0 6 14 10 30 10 17 0 30 5 30 10 0 6 11 10 25 10 14 0 25 5
25 10 0 6 9 10 19 10 11 0 23 5 26 10 3 6 13 10 20 10 26 0 295 139 295 152 0
4 7 8 15 8 17 0 168 98 173 112 2 4 10 8 17 8 7 0 15 4 17 8 2 5 23 22 48 39
25 18 57 42 72 55 14 13 43 37 65 54 21 18 64 57 97 88 32 31 61 56 65 56 7 0
36 -543 52 -980 12 -353 12 -1203 -1 -1430 -5 -96 -12 -220 -15 -275 -11 -193
-50 -509 -82 -660 -8 -38 -18 -90 -23 -115 -18 -101 -77 -286 -115 -360 -14
-27 -25 -56 -25 -65 0 -8 -4 -15 -9 -15 -5 0 -12 -8 -16 -19 -3 -10 -13 -28
-23 -39 -9 -11 -24 -30 -32 -43 -22 -33 -71 -79 -84 -79 -6 0 -18 -9 -26 -20
-8 -11 -20 -20 -27 -20 -7 0 -21 -4 -31 -9 -19 -10 -51 -23 -99 -41 -21 -8
-60 -10 -113 -6 -44 3 -116 9 -161 12 -48 4 -90 2 -103 -4 -11 -6 -36 -16 -53
-24 -18 -7 -33 -16 -33 -20 0 -5 -7 -8 -15 -8 -8 0 -15 -4 -15 -10 0 -5 -6
-10 -13 -10 -7 0 -23 -9 -35 -20 -12 -11 -24 -20 -26 -20 -7 0 -40 -27 -72
-57 -13 -13 -26 -23 -28 -23 -3 0 -19 -14 -34 -30 -16 -17 -33 -30 -38 -31 -5
0 -49 -44 -97 -98 -243 -266 -271 -427 -100 -561 32 -25 62 -40 78 -40 8 0 15
-4 15 -9 0 -5 12 -11 28 -14 15 -3 47 -11 72 -17 122 -31 504 -38 608 -11 20
5 64 15 97 21 33 7 69 16 80 20 21 9 60 18 113 27 18 3 35 9 38 14 3 5 16 9
29 9 13 0 27 4 30 10 3 5 19 10 36 10 16 0 29 5 29 10 0 6 11 10 25 10 14 0
25 5 25 10 0 6 6 10 14 10 17 0 100 42 104 53 2 4 12 7 23 7 10 0 19 5 19 10
0 6 5 10 11 10 6 0 29 18 51 40 22 22 44 40 48 40 10 0 120 110 120 120 0 4
19 27 43 51 51 54 80 89 104 126 10 15 23 33 29 38 17 14 136 182 160 225 10
19 29 44 41 57 12 12 24 32 28 43 3 11 10 20 15 20 5 0 12 9 15 20 4 11 16 31
28 43 12 12 28 34 36 50 8 15 18 27 21 27 4 0 13 14 20 30 7 17 16 30 20 30 4
0 12 11 18 25 7 14 17 31 22 38 38 45 50 61 50 67 0 4 9 18 20 31 11 13 23 29
28 34 4 6 19 30 32 55 14 25 30 51 37 58 6 6 15 21 18 32 3 11 11 20 16 20 5
0 9 9 9 20 0 11 4 20 8 20 10 0 52 85 52 105 0 8 4 15 8 15 25 0 71 252 92
495 37 439 100 953 190 1545 11 74 25 167 30 205 10 75 28 196 84 560 41 266
73 475 80 525 3 19 9 60 15 90 5 30 19 116 31 190 11 74 25 160 30 190 5 30
14 84 20 120 21 125 31 185 41 240 5 30 14 82 19 115 43 286 67 362 136 432
19 18 34 38 34 43 0 6 5 10 10 10 6 0 24 13 42 30 17 16 37 30 44 30 8 0 14 5
14 10 0 6 11 10 24 10 14 0 28 5 31 10 3 6 19 10 36 10 16 0 29 5 29 10 0 6
18 10 40 10 22 0 40 5 40 10 0 6 13 10 29 10 17 0 33 5 36 10 3 6 21 10 40 10
19 0 37 4 40 10 3 5 21 10 40 10 19 0 36 4 39 9 3 5 23 11 43 14 21 3 56 10
78 17 22 6 55 14 73 17 17 3 32 9 32 14 0 5 18 9 39 9 22 0 43 5 46 10 3 6 22
10 41 10 19 0 34 4 34 9 0 5 17 11 38 15 89 13 112 19 112 27 0 5 18 9 39 9
22 0 43 5 46 10 3 6 24 10 46 10 21 0 39 5 39 10 0 6 18 10 39 10 22 0 43 4
46 10 3 5 19 10 36 10 16 0 29 5 29 10 0 6 20 10 44 10 25 0 48 5 51 10 3 6
22 10 41 10 19 0 34 4 34 9 0 5 18 12 40 15 22 3 58 9 80 12 22 3 40 10 40 15
0 5 20 9 44 9 25 0 47 4 50 9 3 5 20 11 38 14 18 4 49 9 68 12 19 4 44 10 55
15 11 5 34 11 50 14 17 2 50 10 75 16 25 6 61 14 80 16 19 3 44 9 55 14 11 5
36 11 55 14 19 3 51 9 70 12 l35 6 -1 271 c-1 150 2 277 6 282 4 6 13 80 19
165 32 397 91 628 259 1006 110 249 162 328 277 422 95 78 144 102 204 102 70
0 102 -19 148 -88 67 -100 108 -242 194 -676 104 -526 128 -624 154 -646 9 -7
36 -6 91 6 44 8 149 18 234 22 85 4 161 11 169 16 7 5 22 29 33 53 38 86 194
537 299 868 69 215 100 273 168 313 42 25 55 27 152 27 93 0 111 -3 154 -25
125 -64 210 -221 289 -537 62 -246 120 -608 137 -858 6 -88 13 -170 15 -182
l4 -23 310 0 c195 0 311 -4 315 -10 3 -6 27 -10 53 -10 99 0 89 33 96 -338 3
-180 10 -363 15 -407 26 -219 32 -264 41 -315 5 -30 14 -84 20 -120 10 -66 42
-221 61 -295 6 -22 13 -55 16 -73 3 -17 9 -32 13 -32 4 0 10 -19 13 -42 8 -63
19 -112 26 -118 10 -8 31 -75 31 -98 0 -12 4 -22 8 -22 5 0 15 -26 22 -57 7
-32 19 -71 27 -86 8 -16 23 -54 33 -85 19 -61 35 -100 81 -199 16 -34 29 -68
29 -77 0 -9 5 -16 10 -16 6 0 10 -6 10 -13 0 -18 24 -67 33 -67 4 0 7 -9 7
-20 0 -11 5 -20 10 -20 6 0 10 -9 10 -20 0 -11 5 -20 10 -20 6 0 10 -7 10 -15
0 -19 56 -131 81 -164 11 -13 19 -30 19 -38 0 -8 6 -21 13 -28 30 -35 37 -45
37 -58 0 -8 8 -25 19 -38 10 -13 31 -48 46 -78 15 -30 33 -61 40 -68 8 -7 17
-22 20 -33 3 -11 10 -20 14 -20 4 0 16 -18 26 -40 10 -22 21 -40 25 -40 4 0
15 -18 25 -40 10 -22 21 -40 25 -40 4 0 13 -13 20 -30 7 -17 15 -30 19 -30 3
0 12 -13 19 -30 8 -16 17 -30 20 -30 4 0 35 40 69 88 78 108 182 222 432 473
181 181 202 199 281 238 213 104 469 68 545 -78 21 -42 20 -154 -3 -211 -47
-118 -43 -115 -464 -525 -173 -168 -306 -348 -426 -576 l-36 -68 26 -58 c27
-57 37 -88 56 -168 36 -147 41 -269 16 -460 -8 -66 -17 -140 -20 -165 -3 -25
-9 -61 -15 -80 -5 -19 -11 -57 -14 -85 -2 -27 -9 -75 -15 -105 -6 -30 -15 -81
-20 -112 -6 -32 -14 -84 -20 -115 -5 -32 -14 -82 -20 -110 -5 -29 -15 -77 -20
-105 -6 -29 -15 -74 -20 -100 -11 -52 -24 -118 -40 -200 -6 -29 -13 -69 -17
-88 -3 -19 -9 -39 -13 -45 -5 -5 -10 -23 -13 -40 -12 -67 -71 -205 -88 -205
-5 0 -9 -7 -9 -15 0 -15 -8 -26 -66 -87 -25 -27 -62 -58 -69 -58 -5 0 -37 -25
-60 -48 -8 -6 -21 -12 -29 -12 -9 0 -16 -4 -16 -8 0 -5 -16 -14 -35 -22 -19
-8 -35 -17 -35 -22 0 -4 -7 -8 -15 -8 -8 0 -15 -4 -15 -10 0 -5 -9 -10 -20
-10 -11 0 -20 -4 -20 -10 0 -5 -7 -10 -15 -10 -8 0 -15 -4 -15 -10 0 -5 -9
-10 -20 -10 -11 0 -20 -4 -20 -10 0 -5 -7 -10 -15 -10 -8 0 -15 -4 -15 -10 0
-5 -7 -10 -15 -10 -8 0 -15 -4 -15 -10 0 -5 -7 -10 -15 -10 -8 0 -15 -4 -15
-10 0 -5 -7 -10 -15 -10 -8 0 -15 -4 -15 -10 0 -5 -5 -10 -10 -10 -12 0 -120
-107 -120 -118 0 -4 -11 -20 -24 -35 -14 -16 -37 -68 -52 -115 -25 -81 -26
-91 -15 -146 12 -56 37 -104 73 -136 42 -38 59 -50 73 -50 8 0 15 -4 15 -10 0
-5 11 -10 25 -10 14 0 25 -4 25 -9 0 -18 142 -26 480 -25 212 1 387 6 435 13
44 7 97 14 118 17 20 4 37 10 37 15 0 5 14 9 30 9 17 0 30 3 30 8 0 4 15 14
33 21 32 15 49 30 77 71 8 12 21 28 28 36 6 7 12 20 12 28 0 9 3 16 8 16 8 0
32 49 32 67 0 7 5 13 10 13 6 0 10 9 10 21 0 47 68 286 121 424 10 27 19 60
19 72 0 13 5 23 10 23 6 0 10 7 10 15 0 14 15 50 71 173 16 34 29 69 29 77 0
8 5 15 10 15 6 0 10 9 10 20 0 11 5 20 10 20 6 0 10 7 10 15 0 19 79 179 91
183 5 2 9 12 9 23 0 10 5 19 10 19 6 0 10 9 10 19 0 11 4 21 8 23 5 2 28 41
51 87 24 46 48 90 55 96 6 7 20 31 30 54 11 22 23 41 28 41 4 0 8 6 8 13 0 7
9 23 20 35 11 12 20 28 20 37 0 8 4 15 9 15 5 0 14 13 21 30 7 16 16 30 20 30
4 0 13 14 20 30 7 17 16 30 21 30 5 0 9 9 9 20 0 11 4 20 9 20 5 0 12 8 16 19
3 10 13 28 23 39 9 11 23 28 29 39 7 10 33 50 59 88 25 39 50 72 54 75 4 3 15
20 25 39 9 19 21 39 26 45 39 47 49 60 49 65 0 3 14 21 30 40 17 18 30 37 30
41 0 4 9 17 20 30 11 13 20 28 20 35 0 7 11 21 25 31 13 10 30 31 36 46 6 15
14 28 18 28 3 0 20 23 36 51 17 28 42 64 58 81 15 16 27 34 27 40 0 5 11 19
25 32 14 13 25 31 25 40 0 9 4 16 9 16 5 0 12 8 16 19 3 10 15 29 26 42 11 12
22 34 26 48 3 14 12 32 20 39 7 7 16 25 19 40 4 15 15 45 25 67 54 123 58 286
12 465 -13 52 -27 105 -30 117 -3 13 -8 23 -12 23 -4 0 -7 9 -8 19 -2 19 -21
82 -41 131 -26 64 -64 201 -58 207 4 4 10 3 14 -2 4 -6 28 -21 55 -34 26 -13
47 -28 47 -33 0 -4 7 -8 15 -8 8 0 15 -3 15 -7 0 -5 10 -13 23 -19 60 -30 107
-59 107 -66 0 -4 7 -8 15 -8 8 0 15 -4 15 -10 0 -5 9 -10 20 -10 11 0 20 -4
20 -10 0 -5 7 -10 15 -10 8 0 15 -4 15 -10 0 -5 7 -10 15 -10 8 0 23 -8 33
-17 10 -10 30 -24 45 -32 15 -8 27 -18 27 -23 0 -4 7 -8 15 -8 8 0 15 -4 15
-10 0 -5 7 -10 15 -10 8 0 24 -9 35 -20 11 -11 25 -20 30 -20 6 0 10 -4 10
-10 0 -5 9 -10 20 -10 11 0 20 -4 20 -8 0 -5 12 -15 28 -23 15 -8 39 -26 54
-41 14 -16 31 -28 37 -28 6 0 11 -4 11 -10 0 -5 5 -10 11 -10 7 0 19 -8 28
-19 9 -10 26 -21 38 -25 13 -4 43 -27 67 -52 24 -24 48 -44 53 -44 5 0 15 -9
23 -20 8 -11 20 -20 26 -20 6 0 27 -18 47 -40 19 -22 38 -40 42 -40 4 0 20
-13 35 -30 15 -16 31 -30 34 -30 12 0 261 -262 286 -300 8 -13 24 -32 35 -44
11 -12 31 -38 45 -58 14 -21 28 -38 31 -38 4 0 12 -13 19 -30 7 -16 16 -30 20
-30 4 0 13 -13 20 -30 7 -16 16 -30 21 -30 5 0 9 -9 9 -20 0 -11 5 -20 10 -20
6 0 10 -9 10 -20 0 -11 4 -20 8 -20 7 0 37 -59 93 -188 11 -23 19 -50 19 -59
0 -9 9 -42 19 -72 23 -68 37 -143 51 -276 6 -55 15 -136 20 -181 13 -108 13
-615 -1 -706 -6 -40 -15 -104 -20 -143 -10 -68 -15 -92 -39 -185 -23 -91 -32
-117 -72 -202 -40 -85 -41 -86 -82 -92 -81 -10 -116 -18 -122 -27 -3 -5 -18
-9 -35 -9 -16 0 -29 -4 -29 -10 0 -5 -11 -10 -25 -10 -14 0 -34 -4 -45 -10
-11 -5 -29 -14 -40 -20 -11 -5 -27 -10 -35 -10 -8 0 -15 -4 -15 -10 0 -5 -6
-10 -13 -10 -18 0 -67 -24 -67 -32 0 -5 -5 -8 -11 -8 -6 0 -28 -13 -49 -30
-21 -16 -43 -30 -49 -30 -6 0 -11 -4 -11 -10 0 -5 -15 -24 -33 -42 -40 -40
-71 -97 -86 -158 -12 -48 3 -151 29 -201 31 -58 111 -149 131 -149 5 0 9 -4 9
-10 0 -5 7 -10 15 -10 8 0 15 -4 15 -10 0 -5 7 -10 15 -10 8 0 15 -4 15 -10 0
-5 9 -10 20 -10 11 0 20 -4 20 -10 0 -5 14 -10 30 -10 17 0 30 -4 30 -10 0 -5
9 -10 20 -10 11 0 20 -4 20 -9 0 -5 15 -11 33 -14 17 -3 55 -11 82 -17 28 -6
75 -16 105 -22 110 -24 710 -12 710 13 0 5 15 9 34 9 19 0 38 4 41 10 3 5 22
10 41 10 19 0 34 5 34 10 0 6 7 10 15 10 8 0 23 4 33 9 9 5 32 16 50 23 17 7
32 16 32 20 0 5 7 8 15 8 16 0 27 8 99 77 25 24 46 47 46 52 0 4 9 18 20 31
41 47 52 121 46 305 -12 378 -25 619 -56 1050 -13 181 -29 441 -34 560 -3 55
-10 215 -17 355 -11 237 -9 441 7 859 6 166 5 177 -33 294 -25 78 -94 198
-140 245 -7 7 -13 16 -13 20 0 4 -13 21 -28 38 -15 17 -38 46 -52 65 -42 55
-471 479 -486 479 -2 0 -17 12 -33 27 -63 59 -92 83 -100 83 -5 0 -11 7 -15
15 -3 8 -12 15 -21 15 -8 0 -15 7 -15 15 0 8 -4 15 -10 15 -5 0 -28 17 -52 38
-72 63 -282 276 -298 301 -8 13 -20 29 -26 35 -7 7 -22 32 -34 57 -13 24 -26
46 -29 49 -6 5 -35 63 -64 130 -50 114 -88 285 -116 520 -27 224 -22 831 11
1345 16 247 16 550 0 695 -24 214 -52 401 -82 553 -15 71 -27 137 -35 190 -9
54 6 64 25 17 7 -16 16 -30 21 -30 4 0 10 -8 14 -19 3 -10 13 -28 23 -39 9
-11 24 -30 32 -42 8 -12 23 -31 33 -42 9 -12 17 -25 17 -29 0 -4 17 -25 38
-47 20 -22 44 -50 52 -62 8 -12 27 -36 42 -52 16 -17 28 -34 28 -38 0 -4 12
-22 28 -38 15 -17 38 -45 52 -62 21 -25 323 -331 371 -375 9 -8 20 -15 25 -15
5 0 16 -9 24 -20 8 -11 20 -20 27 -20 7 0 13 -4 13 -10 0 -5 5 -10 11 -10 7 0
19 -8 28 -18 9 -9 28 -23 44 -31 15 -8 27 -18 27 -23 0 -4 7 -8 15 -8 8 0 15
-4 15 -10 0 -5 7 -10 15 -10 8 0 15 -4 15 -10 0 -5 7 -10 15 -10 8 0 15 -4 15
-10 0 -5 7 -10 16 -10 9 0 28 -8 42 -18 27 -18 101 -55 177 -87 22 -9 48 -21
57 -26 10 -5 27 -9 38 -9 11 0 20 -4 20 -10 0 -5 11 -10 24 -10 14 0 28 -4 31
-10 3 -6 19 -10 36 -10 16 0 29 -4 29 -10 0 -5 18 -10 39 -10 22 0 42 -4 45
-9 3 -5 25 -12 48 -15 24 -4 81 -12 128 -18 107 -15 474 -15 600 0 52 7 120
15 150 18 30 3 59 10 65 15 5 5 28 9 52 9 24 0 43 5 43 10 0 6 16 10 35 10 19
0 35 5 35 10 0 6 18 10 40 10 22 0 40 5 40 10 0 6 13 10 29 10 17 0 32 4 35 9
3 5 20 11 38 14 76 13 98 20 98 28 0 5 14 9 30 9 17 0 30 3 30 8 0 8 71 32 95
32 8 0 15 5 15 10 0 6 11 10 24 10 14 0 28 5 31 10 3 6 17 10 31 10 13 0 24 5
24 10 0 6 9 10 20 10 11 0 20 5 20 10 0 6 8 10 18 10 10 0 37 9 60 20 22 11
48 20 57 20 8 0 15 5 15 10 0 6 9 10 19 10 11 0 23 5 26 10 3 6 15 10 26 10
10 0 19 5 19 10 0 6 9 10 20 10 11 0 20 5 20 10 0 6 11 10 25 10 14 0 25 5 25
10 0 6 9 10 19 10 11 0 21 4 23 8 4 11 94 52 113 52 8 0 15 5 15 10 0 6 9 10
20 10 11 0 20 5 20 10 0 6 9 10 20 10 11 0 20 5 20 10 0 6 11 10 25 10 14 0
25 5 25 10 0 6 9 10 20 10 11 0 20 5 20 10 0 6 7 10 15 10 8 0 15 6 15 13 0 9
-54 12 -232 13 -233 1 -325 8 -343 25 -5 5 -24 9 -41 9 -18 0 -36 4 -39 10 -3
5 -19 10 -35 10 -16 0 -32 4 -35 10 -3 6 -17 10 -31 10 -13 0 -24 5 -24 10 0
6 -11 10 -25 10 -41 0 -31 28 13 35 51 8 80 14 127 26 22 6 58 13 80 16 22 3
44 9 50 14 5 5 22 9 37 9 15 0 28 5 28 10 0 6 14 10 30 10 17 0 30 5 30 10 0
6 14 10 30 10 17 0 30 5 30 10 0 6 11 10 24 10 14 0 28 5 31 10 3 6 17 10 30
10 13 0 27 5 30 10 3 6 15 10 26 10 10 0 19 5 19 10 0 6 9 10 20 10 11 0 20 5
20 10 0 6 7 10 15 10 8 0 30 9 50 20 20 11 42 20 50 20 8 0 15 5 15 10 0 6 11
10 25 10 14 0 25 5 25 10 0 6 7 10 15 10 8 0 15 5 15 10 0 6 7 10 15 10 8 0
15 5 15 10 0 6 9 10 20 10 11 0 20 5 20 10 0 6 9 10 20 10 11 0 20 4 20 9 0 5
15 14 33 22 17 7 39 21 48 31 9 10 24 18 33 18 9 0 16 5 16 10 0 6 7 10 15 10
8 0 15 5 15 10 0 6 6 10 13 10 7 0 19 9 27 20 8 11 22 20 32 20 10 0 18 5 18
10 0 6 6 10 13 10 7 0 19 9 27 20 8 11 18 20 23 20 5 0 22 14 37 30 15 17 33
30 39 30 6 0 11 5 11 10 0 6 5 10 11 10 6 0 32 23 59 50 27 28 53 50 59 50 6
0 11 4 11 8 0 12 35 52 45 52 10 0 45 40 45 52 0 4 7 8 15 8 8 0 15 5 15 10 0
6 -13 10 -30 10 -16 0 -30 -4 -30 -10 0 -5 -11 -10 -24 -10 -14 0 -28 -4 -31
-10 -3 -5 -16 -10 -29 -10 -12 0 -26 -4 -31 -9 -6 -5 -28 -11 -50 -14 -69 -10
-109 -18 -130 -27 -11 -5 -36 -11 -55 -15 -104 -18 -161 -27 -215 -32 -33 -2
-64 -8 -70 -13 -16 -12 -145 -13 -145 -1 0 6 9 11 20 11 11 0 20 5 20 10 0 6
9 10 20 10 11 0 20 5 20 10 0 6 7 10 15 10 8 0 15 5 15 10 0 6 7 10 15 10 8 0
15 5 15 10 0 6 7 10 15 10 8 0 15 5 15 10 0 6 7 10 15 10 8 0 29 13 47 30 17
16 35 30 40 30 6 0 23 13 38 30 15 16 31 30 34 30 3 0 32 28 65 63 80 83 93
98 112 127 9 14 30 40 48 59 17 18 31 37 31 42 0 4 11 19 24 32 13 13 34 44
46 68 13 24 26 46 30 49 4 3 10 17 13 32 4 15 14 33 22 42 8 8 15 22 15 30 0
9 3 16 8 16 7 0 11 10 52 130 13 36 27 74 31 85 12 27 37 140 54 245 14 85 20
280 9 280 -6 0 -44 -40 -84 -91 -24 -30 -105 -112 -187 -191 -21 -20 -43 -42
-49 -50 -15 -17 -53 -48 -59 -48 -3 0 -24 -18 -46 -40 -23 -22 -46 -40 -51
-40 -6 0 -23 -13 -38 -30 -15 -16 -33 -30 -39 -30 -6 0 -11 -4 -11 -10 0 -5
-6 -10 -13 -10 -7 0 -19 -9 -27 -20 -8 -11 -22 -20 -31 -20 -10 0 -19 -6 -22
-12 -2 -7 -8 -10 -12 -6 -4 4 10 24 31 45 72 70 144 205 191 358 60 190 78
340 69 570 -6 188 -11 228 -55 520 -9 59 -23 124 -41 198 -6 20 -14 54 -20 75
-5 20 -13 55 -19 77 -19 81 -41 153 -89 295 -74 214 -96 275 -104 278 -5 2 -8
10 -8 17 0 8 -23 60 -50 116 -27 56 -50 108 -50 115 0 8 -4 14 -9 14 -5 0 -11
9 -14 20 -3 11 -11 20 -19 20 -10 0 -13 -49 -13 -258 -1 -149 -6 -295 -13
-347 -38 -268 -60 -378 -116 -565 -14 -47 -28 -98 -32 -115 -4 -16 -10 -32
-13 -35 -4 -3 -18 -39 -31 -80 -13 -41 -27 -77 -30 -80 -3 -3 -11 -23 -18 -45
-23 -71 -126 -275 -139 -275 -7 0 -13 5 -13 10 0 6 4 10 9 10 4 0 11 15 14 33
4 17 13 61 20 97 8 36 20 126 27 200 10 115 9 156 -5 275 -20 182 -42 305 -54
305 -4 0 -22 -44 -39 -97 -35 -106 -58 -163 -103 -261 -16 -34 -29 -69 -29
-77 0 -8 -4 -15 -10 -15 -5 0 -10 -9 -10 -19 0 -11 -4 -21 -9 -23 -5 -2 -25
-34 -45 -73 -53 -100 -117 -205 -143 -233 -7 -7 -13 -17 -13 -22 0 -7 -21 -33
-80 -97 -11 -12 -20 -25 -20 -29 0 -3 -17 -23 -37 -44 -21 -21 -62 -66 -92
-99 -30 -34 -59 -61 -64 -61 -5 0 -22 -13 -37 -30 -15 -16 -31 -30 -34 -30 -4
0 -17 -10 -30 -22 -38 -37 -66 -58 -76 -58 -6 0 -10 -4 -10 -10 0 -5 -7 -10
-15 -10 -8 0 -15 -4 -15 -10 0 -5 -9 -10 -20 -10 -11 0 -20 -4 -20 -10 0 -5
-7 -10 -15 -10 -8 0 -15 -4 -15 -10 0 -5 -6 -10 -14 -10 -8 0 -16 -3 -18 -8
-1 -4 -43 -27 -93 -51 -49 -24 -98 -47 -107 -52 -10 -5 -27 -9 -38 -9 -11 0
-20 -4 -20 -10 0 -5 -13 -10 -30 -10 -16 0 -30 -4 -30 -10 0 -5 -13 -10 -29
-10 -17 0 -32 -4 -35 -9 -3 -5 -20 -11 -38 -14 -18 -4 -58 -11 -88 -17 -134
-27 -235 -33 -530 -33 -373 0 -540 14 -855 74 -27 6 -66 12 -85 15 -19 3 -44
9 -55 14 -11 5 -36 11 -55 15 -19 3 -50 8 -68 12 -18 3 -35 9 -38 14 -3 5 -17
9 -31 9 -24 0 -65 11 -118 30 -11 4 -40 13 -65 20 -25 6 -53 16 -62 21 -10 5
-27 9 -37 9 -11 0 -23 5 -26 10 -3 6 -15 10 -26 10 -10 0 -27 4 -37 9 -32 17
-67 29 -114 42 -27 8 -48 17 -48 21 0 4 -9 8 -20 8 -11 0 -20 5 -20 10 0 6
-11 10 -24 10 -14 0 -28 5 -31 10 -3 6 -15 10 -26 10 -10 0 -19 5 -19 10 0 6
-9 10 -20 10 -11 0 -20 5 -20 10 0 6 -11 10 -25 10 -14 0 -25 5 -25 10 0 6 -9
10 -20 10 -11 0 -20 5 -20 10 0 6 -11 10 -25 10 -14 0 -25 5 -25 10 0 6 -11
10 -25 10 -14 0 -25 5 -25 10 0 6 -7 10 -15 10 -8 0 -15 5 -15 10 0 6 -9 10
-20 10 -11 0 -20 5 -20 10 0 6 -9 10 -20 10 -11 0 -20 5 -20 10 0 6 -9 10 -20
10 -11 0 -20 5 -20 10 0 6 -9 10 -20 10 -11 0 -20 5 -20 10 0 6 -7 10 -15 10
-8 0 -15 5 -15 10 0 6 -9 10 -20 10 -11 0 -20 5 -20 10 0 6 -9 10 -20 10 -11
0 -20 5 -20 10 0 6 -7 10 -15 10 -8 0 -15 5 -15 10 0 6 -7 10 -15 10 -8 0 -15
5 -15 10 0 6 -7 10 -15 10 -15 0 -98 81 -235 229 -36 38 -68 70 -71 71 -3 0
-31 24 -61 53 -57 53 -61 57 -138 117 -25 19 -46 38 -48 42 -2 5 -8 8 -13 8
-8 0 -35 20 -64 48 -8 6 -17 12 -21 12 -4 0 -40 23 -80 50 -40 28 -77 50 -83
50 -6 0 -11 4 -11 8 0 5 -16 14 -35 22 -19 8 -35 16 -35 19 0 4 -15 12 -32 20
-18 8 -35 17 -38 20 -8 10 -213 108 -297 143 -18 7 -33 16 -33 20 0 5 -11 8
-24 8 -14 0 -28 5 -31 10 -3 6 -17 10 -30 10 -13 0 -27 5 -30 10 -3 6 -13 10
-21 10 -8 0 -34 9 -56 20 -23 11 -48 20 -55 20 -7 0 -21 4 -31 9 -9 5 -37 15
-62 22 -25 7 -49 16 -55 21 -5 4 -24 8 -42 8 -18 0 -33 4 -33 9 0 5 -15 11
-32 14 -30 4 -67 14 -241 61 -32 9 -69 16 -82 16 -13 0 -26 4 -29 9 -3 5 -23
11 -43 14 -50 8 -125 22 -193 37 -30 6 -77 15 -105 20 -27 5 -79 13 -115 20
-84 14 -167 27 -255 41 -38 6 -95 15 -125 20 -30 5 -89 14 -130 19 -41 5 -109
14 -150 19 -179 24 -359 45 -510 61 -52 5 -133 14 -180 19 -81 10 -205 23
-390 41 -47 4 -137 13 -200 19 -63 6 -167 16 -230 22 -63 5 -162 14 -220 19
-97 9 -166 15 -470 40 -248 21 -360 30 -470 40 -63 6 -171 15 -240 20 -69 5
-177 14 -240 20 -63 5 -169 14 -235 19 -66 6 -165 15 -220 21 -55 6 -140 16
-190 20 -113 12 -237 26 -340 40 -110 15 -215 29 -310 41 -170 22 -257 35
-385 59 -30 6 -84 15 -120 20 -147 23 -252 41 -345 61 -27 5 -70 14 -95 19
-25 5 -67 14 -95 20 -119 26 -163 33 -202 34 -24 0 -43 4 -43 7 0 7 -66 26
-125 35 -16 3 -39 9 -50 14 -11 5 -33 11 -50 15 -16 3 -48 11 -70 16 -22 6
-55 13 -73 16 -18 3 -35 9 -38 14 -3 5 -18 9 -34 9 -16 0 -32 5 -35 10 -3 6
-17 10 -30 10 -13 0 -27 5 -30 10 -3 6 -19 10 -35 10 -16 0 -32 5 -35 10 -3 6
-19 10 -35 10 -16 0 -32 5 -35 10 -3 6 -16 10 -29 10 -12 0 -26 4 -31 9 -6 4
-31 14 -58 21 -26 7 -50 17 -53 21 -3 5 -15 9 -28 9 -12 0 -26 4 -31 8 -6 4
-28 14 -50 21 -22 7 -51 17 -65 23 -14 6 -36 15 -50 21 -14 5 -33 13 -42 18
-10 5 -25 9 -33 9 -8 0 -15 5 -15 10 0 6 -11 10 -25 10 -14 0 -25 5 -25 10 0
6 -10 10 -21 10 -12 0 -38 9 -58 19 -20 11 -51 25 -68 33 -18 7 -33 16 -33 20
0 5 -7 8 -15 8 -8 0 -15 5 -15 10 0 6 -11 10 -25 10 -14 0 -25 5 -25 10 0 6
-9 10 -20 10 -11 0 -20 5 -20 10 0 6 -9 10 -20 10 -11 0 -20 5 -20 10 0 6 -9
10 -20 10 -11 0 -20 5 -20 10 0 6 -7 10 -15 10 -8 0 -15 5 -15 10 0 6 -9 10
-20 10 -11 0 -20 5 -20 10 0 6 -6 10 -14 10 -8 0 -16 3 -18 8 -4 9 -57 41 -80
49 -10 3 -18 9 -18 14 0 5 -7 9 -15 9 -8 0 -15 5 -15 10 0 6 -7 10 -15 10 -8
0 -15 5 -15 10 0 6 -7 10 -15 10 -8 0 -15 5 -15 10 0 6 -7 10 -15 10 -8 0 -20
9 -27 20 -7 11 -19 20 -26 20 -10 0 -12 6 -7 18 18 40 16 71 -5 113 -13 24
-26 46 -29 49 -4 3 -22 25 -41 50 -18 25 -42 54 -51 65 -10 11 -40 44 -66 74
-26 30 -56 61 -67 70 -10 9 -35 32 -56 51 -65 61 -100 90 -109 90 -5 0 -11 5
-13 11 -2 7 -21 13 -41 14 -44 3 -100 44 -118 87 -6 15 -15 28 -20 28 -5 0 -9
9 -9 20 0 11 -4 20 -9 20 -5 0 -17 17 -26 38 -10 20 -21 39 -25 42 -4 3 -15
20 -25 39 -9 19 -26 43 -36 54 -10 12 -19 27 -19 34 0 7 -4 13 -8 13 -5 0 -19
23 -32 50 -13 28 -27 50 -31 50 -4 0 -11 9 -14 20 -3 11 -12 26 -18 32 -7 7
-23 33 -36 58 -14 25 -31 51 -38 58 -18 19 -32 77 -39 162 -3 41 -15 100 -25
131 -10 30 -19 65 -19 77 0 12 -3 22 -8 22 -7 0 -11 11 -44 103 -7 20 -16 37
-20 37 -5 0 -8 7 -8 15 0 18 -122 268 -132 273 -5 2 -8 15 -8 28 0 13 -4 24
-10 24 -5 0 -10 9 -10 20 0 11 -3 20 -8 20 -4 0 -18 21 -32 48 -14 26 -35 57
-47 70 -13 13 -23 27 -23 31 0 5 -18 28 -40 52 -22 24 -40 47 -40 51 0 8 -77
88 -85 88 -4 0 -24 18 -45 40 -21 22 -43 40 -49 40 -6 0 -11 5 -11 10 0 6 -6
10 -13 10 -7 0 -19 9 -27 20 -8 11 -20 20 -27 20 -7 0 -13 5 -13 10 0 6 -7 10
-15 10 -8 0 -15 5 -15 10 0 6 -7 10 -15 10 -8 0 -15 5 -15 10 0 6 -7 10 -15
10 -8 0 -15 5 -15 10 0 6 -9 10 -20 10 -11 0 -20 5 -20 10 0 6 -9 10 -20 10
-11 0 -20 5 -20 10 0 6 -9 10 -20 10 -11 0 -20 5 -20 10 0 6 -9 10 -19 10 -11
0 -22 4 -25 8 -3 5 -38 19 -78 31 -105 34 -117 40 -178 98 -30 28 -68 62 -85
75 -16 12 -31 26 -33 30 -2 5 -10 8 -17 8 -7 0 -15 4 -17 9 -12 32 -283 218
-435 298 -112 59 -297 134 -389 158 -217 57 -446 77 -624 54z m1525 -698 c102
-17 129 -22 150 -31 11 -4 40 -13 65 -20 64 -18 244 -106 315 -154 142 -95
254 -193 324 -284 127 -165 119 -151 250 -422 87 -180 131 -278 131 -291 0 -5
4 -17 9 -27 21 -42 51 -153 51 -193 1 -24 5 -64 10 -89 12 -66 -25 -242 -71
-332 -10 -21 -29 -57 -40 -80 -50 -100 -192 -259 -270 -303 -85 -49 -188 -95
-211 -95 -15 0 -29 -4 -32 -9 -3 -5 -29 -11 -58 -14 -29 -4 -91 -11 -138 -17
-47 -6 -123 -15 -170 -20 -163 -19 -161 -18 -237 -52 -16 -7 -40 -20 -55 -30
-14 -10 -31 -18 -38 -18 -6 0 -46 -34 -89 -75 -43 -42 -87 -83 -99 -91 -12 -8
-22 -21 -22 -27 0 -7 -23 -41 -50 -77 -28 -36 -83 -112 -123 -170 -134 -195
-218 -259 -305 -233 -86 26 -119 44 -192 105 -114 97 -170 215 -200 423 -12
89 -13 465 0 615 13 158 40 431 50 510 5 36 13 110 19 165 19 186 63 470 77
499 8 16 14 41 14 55 0 28 44 204 60 236 5 11 16 43 24 70 39 137 136 298 220
369 69 57 129 85 214 99 39 7 74 16 79 21 9 10 251 0 338 -13z m-2522 -604
c-9 -80 52 -147 133 -147 32 0 45 7 86 50 l48 49 54 -37 c31 -20 55 -40 56
-44 0 -5 -25 -8 -55 -8 -30 0 -64 -4 -77 -9 -67 -26 -107 -33 -135 -24 -28 10
-53 -2 -53 -26 0 -26 108 -29 190 -5 96 28 123 28 162 1 l36 -24 -135 -6
c-288 -14 -449 -7 -473 22 -3 3 -17 12 -32 20 -32 17 -38 51 -9 51 28 0 103
35 126 58 37 39 46 52 40 61 -8 13 16 61 30 61 9 0 11 -13 8 -43z m-1897 -528
c136 -26 213 -88 222 -180 4 -43 0 -60 -28 -115 -25 -51 -56 -87 -149 -173
-197 -185 -243 -214 -340 -214 -64 0 -57 -7 -147 162 -38 71 -68 143 -79 187
-16 69 -16 76 0 125 11 33 33 67 59 93 49 48 142 105 189 116 50 12 207 11
273 -1z m6299 -1173 c43 -29 205 -184 271 -260 46 -52 114 -145 112 -153 -1
-4 6 -23 16 -41 16 -32 16 -36 1 -70 -45 -103 -138 -241 -221 -331 -104 -112
-338 -295 -485 -379 -19 -11 -65 -39 -104 -62 -92 -57 -161 -96 -210 -121 -22
-12 -58 -31 -80 -44 -22 -13 -62 -35 -90 -50 -27 -14 -77 -41 -110 -60 -33
-19 -170 -89 -305 -156 -135 -67 -252 -125 -260 -130 -8 -5 -26 -14 -40 -20
-14 -5 -52 -23 -85 -38 -61 -29 -91 -43 -230 -106 -83 -38 -383 -165 -390
-165 -2 0 -38 -16 -79 -35 -42 -19 -84 -35 -94 -35 -10 0 -22 -4 -27 -9 -6 -4
-23 -13 -40 -19 -16 -6 -73 -27 -125 -47 -174 -67 -254 -97 -325 -120 -38 -13
-108 -37 -155 -53 -47 -17 -101 -33 -120 -37 -19 -4 -44 -13 -55 -19 -11 -7
-36 -16 -56 -20 -21 -3 -50 -13 -65 -20 -16 -8 -46 -16 -66 -19 -34 -5 -40 -2
-70 33 -72 85 -162 232 -233 383 -60 125 -60 136 -10 161 22 10 47 23 55 28 8
4 26 13 40 19 14 5 43 18 65 29 22 10 85 37 140 60 55 22 123 52 152 65 28 14
54 25 58 25 3 0 41 16 83 36 42 20 93 42 112 51 19 8 53 23 75 34 22 10 43 19
47 19 4 0 46 18 95 41 48 23 117 54 153 71 284 130 862 419 985 493 22 13 47
27 55 30 8 4 22 10 30 15 8 5 48 29 89 52 40 24 90 53 110 65 20 12 42 25 49
29 73 38 301 184 490 314 161 110 229 160 355 259 32 25 72 56 90 69 18 13 90
73 160 133 111 96 168 139 187 139 3 0 28 -15 55 -34z m-3851 -88 c-3 -4 17
-19 43 -32 60 -32 85 -53 117 -101 83 -122 -39 -333 -252 -436 -224 -110 -448
-81 -704 89 -59 39 -78 46 -136 52 -59 5 -63 6 -32 12 190 38 417 34 509 -8
83 -38 150 -31 277 26 105 48 138 176 61 234 -23 17 -42 21 -95 20 -56 0 -93
-10 -222 -58 -212 -79 -236 -85 -385 -95 -89 -6 -167 -19 -247 -40 -133 -34
-239 -46 -231 -24 3 8 -3 13 -17 13 -11 0 -18 5 -15 10 3 6 39 10 78 10 79 1
183 21 170 33 -4 5 0 5 8 2 26 -10 130 30 334 127 348 165 392 178 597 175 80
-1 144 -5 142 -9z m-1384 -423 c0 -28 40 -38 139 -33 99 5 96 4 -76 -27 -51
-10 -93 -21 -93 -25 0 -12 -206 -18 -305 -8 -49 4 -117 17 -150 27 l-60 19
148 1 c82 1 146 4 144 9 -3 4 32 8 76 10 45 2 84 7 85 12 2 6 17 10 32 10 16
0 32 5 35 10 9 15 25 12 25 -5z m353 -12 c-7 -2 -19 -2 -25 0 -7 3 -2 5 12 5
14 0 19 -2 13 -5z m-60 -10 c-7 -2 -19 -2 -25 0 -7 3 -2 5 12 5 14 0 19 -2 13
-5z"/>
<path d="M11638 9476 c-21 -6 -46 -18 -55 -26 -10 -9 -21 -16 -26 -18 -12 -3
-34 -22 -118 -105 -74 -72 -84 -88 -152 -230 -41 -83 -91 -195 -112 -247 -22
-52 -42 -97 -45 -100 -3 -3 -6 -9 -6 -15 -2 -12 -73 -243 -81 -265 -3 -8 -7
-19 -8 -25 -8 -62 -19 -106 -25 -110 -5 -3 -6 -14 -3 -24 3 -10 0 -22 -6 -25
-6 -4 -8 -20 -5 -35 3 -16 1 -31 -4 -35 -6 -3 -8 -21 -5 -40 3 -19 1 -36 -5
-40 -6 -3 -9 -21 -6 -39 3 -17 -2 -90 -11 -162 -21 -180 -24 -234 -24 -440 0
-212 3 -292 12 -302 18 -17 5 -138 -29 -278 -20 -82 -39 -157 -42 -165 -2 -8
-4 -34 -3 -56 1 -23 -3 -45 -9 -49 -7 -5 -11 -30 -8 -70 3 -72 -11 -100 -49
-90 -13 3 -23 1 -23 -5 0 -5 -11 -10 -24 -10 -39 0 -178 -30 -218 -47 -21 -9
-44 -26 -52 -38 -14 -21 -13 -25 14 -50 24 -23 32 -26 45 -15 8 7 21 10 30 7
8 -4 17 -1 21 4 3 6 17 8 30 5 15 -4 24 -2 24 5 0 7 9 9 24 5 13 -3 26 -2 28
3 2 6 42 15 90 22 103 15 99 17 163 -90 81 -140 76 -144 -194 -152 -243 -8
-241 -8 -263 -36 -21 -25 -23 -47 -5 -60 17 -14 96 -23 103 -12 6 10 67 12 77
3 8 -8 248 -7 270 1 9 4 24 4 33 1 9 -4 23 -1 30 5 8 6 20 9 29 6 8 -4 17 -2
20 3 9 14 55 12 55 -2 0 -6 3 -8 7 -5 3 4 15 0 25 -10 25 -22 24 -69 -2 -83
-11 -6 -20 -8 -20 -5 0 3 -6 1 -12 -4 -7 -6 -53 -38 -103 -70 -120 -80 -283
-224 -291 -258 -9 -35 7 -57 43 -61 26 -3 43 8 109 70 108 100 142 126 269
202 89 53 118 66 152 66 24 0 48 -6 57 -16 9 -8 16 -13 16 -10 0 8 103 -55
112 -68 4 -6 8 -8 8 -5 0 12 174 -68 185 -85 7 -12 3 -35 -17 -89 -115 -312
-144 -397 -184 -533 -102 -350 -188 -818 -210 -1149 -4 -55 -11 -106 -17 -113
-5 -7 -8 -45 -5 -87 3 -44 1 -75 -4 -75 -6 0 -9 -45 -7 -109 2 -61 1 -113 -3
-116 -4 -4 -7 -223 -8 -488 0 -461 -5 -557 -30 -557 -6 0 -10 -6 -10 -13 0 -7
-16 -28 -35 -47 -19 -19 -35 -39 -35 -46 0 -6 -7 -14 -15 -18 -8 -3 -15 -10
-15 -17 0 -6 -11 -24 -25 -41 -14 -16 -25 -38 -25 -48 0 -9 -6 -23 -14 -30 -8
-6 -12 -18 -9 -26 3 -8 1 -14 -5 -14 -9 0 -22 -39 -27 -80 -4 -36 -18 -86 -27
-97 -6 -7 -8 -19 -5 -28 4 -8 1 -17 -4 -21 -6 -3 -8 -17 -5 -29 3 -13 1 -27
-5 -31 -6 -3 -9 -19 -5 -35 3 -15 1 -31 -3 -34 -20 -12 -22 -423 -2 -460 2 -5
6 -20 7 -34 2 -13 8 -27 14 -31 7 -4 11 -9 10 -11 -1 -2 3 -17 9 -32 6 -16 11
-32 11 -37 0 -11 32 -82 40 -90 3 -3 26 -34 52 -70 25 -36 83 -100 128 -142
77 -73 81 -79 75 -109 -4 -18 -18 -52 -30 -76 -13 -23 -26 -56 -30 -73 -4 -16
-11 -32 -16 -35 -12 -8 -12 -65 1 -65 6 0 10 -7 10 -15 0 -8 16 -29 35 -48 29
-29 50 -37 132 -55 54 -11 139 -23 188 -26 89 -5 157 -22 203 -52 12 -8 27
-12 32 -9 6 3 10 2 10 -2 0 -5 17 -17 37 -28 31 -17 56 -20 167 -20 l131 0
112 53 c61 28 124 52 140 52 15 0 55 -16 88 -35 101 -59 127 -69 203 -73 57
-3 85 0 137 19 36 12 65 26 65 30 0 4 28 21 63 38 51 26 79 32 144 36 88 4
263 41 263 56 0 5 10 9 22 9 30 0 108 30 133 50 11 9 27 19 35 22 20 8 78 126
79 162 1 37 41 105 83 142 47 43 109 135 158 239 49 102 85 155 105 155 8 0
18 6 22 12 7 12 213 118 228 118 3 0 11 4 18 10 34 27 105 77 131 90 16 8 30
20 33 27 3 6 11 9 19 6 8 -3 14 0 14 6 0 6 11 17 25 23 14 6 25 17 25 25 0 7
4 12 9 11 20 -6 217 180 351 332 41 46 87 97 103 113 15 16 27 30 27 33 0 2
36 50 81 107 44 56 92 117 107 136 15 19 34 42 42 51 26 28 60 79 60 89 0 5 7
11 15 15 8 3 15 12 15 20 0 8 4 16 9 18 12 5 141 184 141 197 0 6 3 11 8 11 4
0 18 18 32 40 14 22 28 40 32 40 3 0 13 12 20 28 19 36 42 76 48 82 12 12 57
76 63 90 4 8 18 33 32 55 13 22 29 49 35 60 6 11 19 34 30 50 11 17 28 48 39
70 10 22 28 49 40 59 11 11 21 25 21 32 0 19 32 84 42 84 4 0 8 9 8 20 0 22
31 93 43 98 4 2 5 8 1 13 -3 5 0 9 6 9 7 0 10 7 7 15 -4 8 -3 16 1 19 5 3 14
28 22 55 7 28 18 51 22 51 5 0 6 4 3 10 -3 5 -1 10 6 10 7 0 9 3 6 7 -4 3 -3
11 2 17 5 6 14 29 21 51 7 22 18 45 25 50 7 6 23 35 36 65 13 30 35 75 49 98
14 24 36 64 51 88 14 25 33 53 42 64 9 11 17 24 17 28 0 4 17 30 39 58 21 28
42 58 47 66 28 48 266 296 334 347 36 27 182 172 238 238 19 21 49 70 68 109
42 87 47 177 14 232 -81 132 -355 145 -544 25 -64 -41 -208 -180 -421 -408
-66 -71 -132 -142 -147 -158 -16 -15 -28 -32 -28 -36 0 -4 -10 -17 -22 -29
-30 -27 -48 -49 -48 -58 0 -4 -11 -21 -23 -38 -55 -72 -142 -235 -233 -436
-53 -118 -100 -217 -104 -220 -4 -3 -13 -22 -21 -43 -7 -20 -17 -37 -22 -37
-4 0 -5 -4 -2 -10 3 -5 2 -10 -3 -10 -5 0 -15 -19 -22 -43 -16 -56 -84 -190
-104 -206 -9 -7 -20 -30 -26 -50 -5 -20 -21 -49 -35 -65 -14 -16 -25 -37 -25
-46 0 -9 -9 -26 -19 -37 -11 -12 -17 -24 -14 -27 4 -3 1 -6 -5 -6 -7 0 -12 -9
-12 -20 0 -12 -12 -32 -26 -47 -14 -14 -23 -27 -20 -30 6 -7 -40 -89 -66 -119
-10 -11 -18 -28 -18 -37 0 -9 -4 -17 -10 -17 -5 0 -10 -7 -10 -15 0 -8 -9 -23
-20 -32 -11 -10 -20 -25 -20 -34 0 -9 -7 -22 -15 -29 -8 -7 -15 -18 -15 -26 0
-7 -6 -17 -12 -21 -7 -4 -21 -25 -30 -45 -10 -21 -21 -38 -25 -38 -5 0 -14
-15 -22 -32 -17 -39 -91 -152 -103 -156 -4 -2 -8 -10 -8 -18 0 -8 -4 -14 -10
-14 -5 0 -10 -5 -10 -10 0 -12 -15 -32 -42 -58 -10 -9 -18 -21 -18 -28 0 -12
-138 -154 -188 -194 -18 -14 -38 -31 -46 -38 -8 -6 -19 -12 -25 -12 -6 0 -11
-3 -11 -8 0 -4 -20 -18 -45 -32 -25 -14 -45 -28 -45 -31 0 -4 -20 -15 -45 -25
-25 -9 -45 -20 -45 -24 0 -10 -128 -60 -152 -60 -9 0 -18 -4 -20 -10 -1 -5
-29 -12 -61 -16 -89 -11 -110 19 -123 176 -3 41 -10 76 -15 78 -5 2 -6 15 -3
28 3 13 2 24 -3 24 -8 0 -26 72 -39 150 -10 59 -16 80 -22 80 -7 0 -25 45 -46
117 -6 24 -17 48 -24 55 -7 7 -12 16 -12 21 0 5 -20 51 -45 104 -25 52 -45
101 -45 109 0 8 -5 14 -11 14 -5 0 -8 4 -5 9 4 5 0 11 -6 13 -18 6 -16 177 2
188 6 4 11 18 9 31 -1 13 1 32 6 42 4 9 5 26 2 37 -3 11 -1 22 3 25 24 15 19
886 -5 925 -3 6 -5 20 -4 33 1 12 -1 30 -6 40 -4 9 -5 26 -2 37 3 11 2 20 -2
20 -4 0 -14 33 -21 73 -32 182 -102 425 -237 826 -109 323 -143 438 -136 450
11 17 66 47 98 53 11 1 22 6 25 9 3 4 28 18 55 32 28 14 78 46 112 71 33 25
77 53 97 61 39 16 106 20 106 6 0 -5 6 -8 13 -7 19 2 147 -38 147 -46 0 -4 6
-5 14 -2 8 3 17 1 20 -5 4 -6 13 -8 21 -5 8 3 19 2 26 -2 7 -4 24 -8 38 -9 70
-6 228 -27 241 -32 8 -3 35 -7 60 -7 51 -1 69 14 70 56 0 37 -23 47 -136 61
-52 6 -94 14 -94 19 0 5 -11 6 -25 2 -14 -3 -33 -3 -42 1 -10 4 -36 9 -57 10
-57 5 -176 36 -176 46 0 4 -6 6 -13 3 -8 -3 -24 3 -37 14 -17 14 -21 24 -15
41 9 29 85 112 97 105 4 -3 8 -1 8 5 0 26 180 35 196 10 2 -5 18 -6 34 -2 17
3 36 0 44 -6 8 -7 25 -9 40 -5 14 3 34 3 43 -1 10 -4 36 -9 58 -10 22 -1 99
-6 171 -10 144 -9 174 -2 174 40 0 31 -35 55 -82 55 -20 0 -39 4 -43 9 -3 6
-28 7 -55 4 -33 -4 -55 -2 -65 7 -8 7 -22 9 -32 6 -22 -9 -363 23 -387 36 -24
13 -17 65 15 109 23 33 102 75 119 64 6 -3 10 -1 10 6 0 6 8 9 20 6 10 -3 21
0 23 7 4 13 360 16 392 2 54 -23 115 0 115 44 0 24 -45 48 -105 57 -25 3 -48
10 -51 14 -3 5 -16 6 -30 3 -13 -3 -32 -3 -41 1 -26 11 -193 12 -193 2 0 -5
-14 -7 -30 -5 -17 3 -33 1 -36 -3 -2 -4 -25 -11 -49 -15 -54 -8 -79 8 -71 42
4 13 2 26 -4 29 -5 3 -10 28 -10 55 0 27 -6 77 -14 112 -10 44 -15 149 -18
351 -2 159 -7 291 -11 294 -5 3 -7 24 -6 47 1 22 -2 49 -6 59 -4 10 -5 33 -2
52 3 19 2 37 -2 39 -4 3 -12 79 -16 168 -4 90 -10 195 -13 233 -2 39 -5 88 -7
110 -1 22 -6 48 -10 58 -4 9 -4 28 -1 41 3 14 1 28 -5 31 -5 4 -9 19 -8 33 1
15 -1 34 -4 42 -7 19 -38 206 -36 217 1 4 0 15 -4 23 -5 14 -68 299 -72 330
-1 8 -7 27 -13 41 -6 15 -16 46 -22 70 -13 48 -79 211 -90 219 -3 3 -21 28
-39 56 -24 38 -46 57 -89 79 -31 16 -64 28 -74 26 -9 -1 -19 3 -23 9 -8 13
-102 13 -110 0 -4 -6 -15 -8 -26 -5 -10 4 -19 3 -19 -2 0 -5 -17 -17 -37 -28
-49 -27 -88 -91 -120 -197 -14 -49 -30 -88 -35 -88 -5 0 -7 -4 -3 -9 9 -16
-239 -743 -300 -877 -30 -65 -50 -72 -186 -71 -58 0 -111 -3 -118 -7 -7 -5
-28 -5 -47 -2 -23 5 -34 3 -34 -5 0 -7 -9 -9 -24 -5 -14 3 -28 2 -31 -4 -3 -6
-17 -7 -31 -4 -14 4 -24 2 -24 -5 0 -6 -9 -11 -20 -11 -37 0 -69 23 -83 59
-17 42 -67 247 -71 294 -2 18 -6 39 -9 47 -9 23 -58 277 -56 286 1 5 -1 16 -4
24 -7 19 -47 209 -45 218 1 4 -2 14 -5 22 -14 34 -55 214 -51 222 3 4 1 8 -5
8 -5 0 -13 15 -16 33 -18 83 -94 190 -146 206 -20 6 -38 11 -40 10 -2 -1 -21
-6 -41 -13z m1117 -2878 c22 -26 26 -39 22 -70 -3 -20 -14 -50 -25 -65 -29
-42 -34 -68 -22 -112 37 -139 145 -132 221 14 27 52 42 71 59 73 67 10 66
-129 -1 -212 -16 -19 -52 -46 -81 -60 -86 -43 -173 -32 -255 30 l-34 25 -50
-45 c-89 -80 -186 -93 -289 -41 -86 44 -125 111 -110 189 12 67 78 57 109 -17
10 -24 34 -56 52 -71 28 -24 40 -27 77 -23 73 8 122 73 122 162 0 18 -15 53
-35 85 -42 65 -45 102 -9 135 31 28 45 32 146 34 74 1 77 0 103 -31z"/>
</g>
</svg>
